<?xml version="1.0" encoding="UTF-8" standalone="no"?>
<!-- Created with Inkscape (http://www.inkscape.org/) -->

<svg
   xmlns:dc="http://purl.org/dc/elements/1.1/"
   xmlns:cc="http://creativecommons.org/ns#"
   xmlns:rdf="http://www.w3.org/1999/02/22-rdf-syntax-ns#"
   xmlns:svg="http://www.w3.org/2000/svg"
   xmlns="http://www.w3.org/2000/svg"
   xmlns:sodipodi="http://sodipodi.sourceforge.net/DTD/sodipodi-0.dtd"
   xmlns:inkscape="http://www.inkscape.org/namespaces/inkscape"
   width="337mm"
   height="337mm"
   version="1.1"
   viewBox="0 0 337 337"
   id="svg12"
   sodipodi:docname="Box in a circle.svg"
   inkscape:version="0.92.3 (2405546, 2018-03-11)"
   inkscape:export-filename="H:\2018H\Vefhonnun-2\logo2.png"
   inkscape:export-xdpi="96"
   inkscape:export-ydpi="96">
  <defs
     id="defs16" />
  <sodipodi:namedview
     pagecolor="#ffffff"
     bordercolor="#666666"
     borderopacity="1"
     objecttolerance="10"
     gridtolerance="10"
     guidetolerance="10"
     inkscape:pageopacity="0"
     inkscape:pageshadow="2"
     inkscape:window-width="1680"
     inkscape:window-height="987"
     id="namedview14"
     showgrid="false"
     inkscape:zoom="0.5946522"
     inkscape:cx="473.00139"
     inkscape:cy="675.84214"
     inkscape:window-x="-8"
     inkscape:window-y="-8"
     inkscape:window-maximized="1"
     inkscape:current-layer="svg12" />
  <metadata
     id="metadata2">
    <rdf:RDF>
      <cc:Work
         rdf:about="">
        <dc:format>image/svg+xml</dc:format>
        <dc:type
           rdf:resource="http://purl.org/dc/dcmitype/StillImage" />
        <dc:title></dc:title>
      </cc:Work>
    </rdf:RDF>
  </metadata>
  <g
     id="g3727"
     transform="translate(535.66522,353.03377)">
    <path
       d="m -204.00145,-185.38881 a 162.91,162.91 0 0 1 -162.90999,162.90999 162.91,162.91 0 0 1 -162.91,-162.90999 162.91,162.91 0 0 1 162.91,-162.91001 162.91,162.91 0 0 1 162.90999,162.91001 z"
       style="fill:none;stroke:#000000;stroke-width:5;stroke-linejoin:round;paint-order:normal"
       id="path4"
       inkscape:connector-curvature="0" />
    <path
       d="m -366.91436,-343.51337 160.01827,160.01826 -160.01827,160.01826 -160.01826,-160.01826 z"
       style="fill:none;stroke:#000000;stroke-width:5.62699986;stroke-linejoin:round;paint-order:normal"
       id="path6"
       inkscape:connector-curvature="0" />
  </g>
  <path
     inkscape:connector-curvature="0"
     id="path8"
     style="stroke:#000000;stroke-width:3.76099992;stroke-linejoin:round;paint-order:normal"
     d="m -296.92542,555.08507 c -16.324,2.2828 -103.48999,-24.45701 -119.96999,-24.45101 -7.9813,0.003 -57.005,31.84901 -54.01,24.45101 6.185,-15.27801 72.924,-77.39501 81.161,-91.67301 3.9884,-6.91329 0.9203,-65.292 5.8298,-58.99999 10.13899,12.996 30.56399,101.84999 38.80999,116.11999 3.9929,6.9107 56.085,33.44301 48.18,34.54901 z" />
</svg>
