<?xml version="1.0" encoding="UTF-8"?>
<!-- Created with Inkscape (http://www.inkscape.org/) -->
<svg width="210mm" height="297mm" version="1.1" viewBox="0 0 210 297" xmlns="http://www.w3.org/2000/svg" xmlns:cc="http://creativecommons.org/ns#" xmlns:dc="http://purl.org/dc/elements/1.1/" xmlns:rdf="http://www.w3.org/1999/02/22-rdf-syntax-ns#">
 <metadata>
  <rdf:RDF>
   <cc:Work rdf:about="">
    <dc:format>image/svg+xml</dc:format>
    <dc:type rdf:resource="http://purl.org/dc/dcmitype/StillImage"/>
    <dc:title/>
   </cc:Work>
  </rdf:RDF>
 </metadata>
 <g stroke="#000" stroke-linejoin="round">
  <path d="m-27.815 134.09a162.91 162.91 0 0 1-162.91 162.91 162.91 162.91 0 0 1-162.91-162.91 162.91 162.91 0 0 1 162.91-162.91 162.91 162.91 0 0 1 162.91 162.91z" fill="none" stroke-width="5" style="paint-order:normal"/>
  <path transform="rotate(45)" d="m-151.86 117.87h226.3v226.3h-226.3z" fill="none" stroke-width="5.627" style="paint-order:normal"/>
  <path d="m-104.08 184.85c-16.324 2.2828-103.49-24.457-119.97-24.451-7.9813 3e-3 -57.005 31.849-54.01 24.451 6.185-15.278 72.924-77.395 81.161-91.673 3.9884-6.9133 0.9203-65.292 5.8298-59 10.139 12.996 30.564 101.85 38.81 116.12 3.9929 6.9107 56.085 33.443 48.18 34.549z" stroke-width="3.761" style="paint-order:normal"/>
 </g>
</svg>
