<?xml version="1.0" encoding="UTF-8" standalone="no"?>
<!-- Created with Inkscape (http://www.inkscape.org/) -->

<svg
   xmlns:dc="http://purl.org/dc/elements/1.1/"
   xmlns:cc="http://creativecommons.org/ns#"
   xmlns:rdf="http://www.w3.org/1999/02/22-rdf-syntax-ns#"
   xmlns:svg="http://www.w3.org/2000/svg"
   xmlns="http://www.w3.org/2000/svg"
   xmlns:sodipodi="http://sodipodi.sourceforge.net/DTD/sodipodi-0.dtd"
   xmlns:inkscape="http://www.inkscape.org/namespaces/inkscape"
   width="182mm"
   height="160mm"
   version="1.1"
   viewBox="0 0 182 160"
   id="svg12"
   sodipodi:docname="Weird Star.svg"
   inkscape:version="0.92.3 (2405546, 2018-03-11)">
  <defs
     id="defs16" />
  <sodipodi:namedview
     pagecolor="#ffffff"
     bordercolor="#666666"
     borderopacity="1"
     objecttolerance="10"
     gridtolerance="10"
     guidetolerance="10"
     inkscape:pageopacity="0"
     inkscape:pageshadow="2"
     inkscape:window-width="1680"
     inkscape:window-height="987"
     id="namedview14"
     showgrid="false"
     inkscape:zoom="1.1893044"
     inkscape:cx="288.87513"
     inkscape:cy="306.79386"
     inkscape:window-x="-8"
     inkscape:window-y="-8"
     inkscape:window-maximized="1"
     inkscape:current-layer="svg12" />
  <metadata
     id="metadata2">
    <rdf:RDF>
      <cc:Work
         rdf:about="">
        <dc:format>image/svg+xml</dc:format>
        <dc:type
           rdf:resource="http://purl.org/dc/dcmitype/StillImage" />
        <dc:title></dc:title>
      </cc:Work>
    </rdf:RDF>
  </metadata>
  <path
     inkscape:connector-curvature="0"
     id="path4"
     style="fill:none;stroke:#000000;stroke-width:5;stroke-linejoin:round;paint-order:normal"
     d="m -204.00145,-185.38881 a 162.91,162.91 0 0 1 -162.90999,162.90999 162.91,162.91 0 0 1 -162.91,-162.90999 162.91,162.91 0 0 1 162.91,-162.91001 162.91,162.91 0 0 1 162.90999,162.91001 z" />
  <path
     inkscape:connector-curvature="0"
     id="path6"
     style="fill:none;stroke:#000000;stroke-width:5.62699986;stroke-linejoin:round;paint-order:normal"
     d="m -366.91436,-343.51337 160.01827,160.01826 -160.01827,160.01826 -160.01826,-160.01826 z" />
  <path
     inkscape:connector-curvature="0"
     id="path8"
     style="stroke:#000000;stroke-width:3.76099992;stroke-linejoin:round;paint-order:normal"
     d="m 177.51949,155.33507 c -16.324,2.2828 -103.489991,-24.45701 -119.969991,-24.45101 -7.9813,0.003 -57.00500001,31.84901 -54.01,24.45101 6.1850002,-15.27801 72.924,-77.395001 81.161,-91.673001 3.988397,-6.913297 0.9203,-65.2920007 5.829797,-58.9999968 C 100.66929,17.658072 121.09429,106.51206 129.34029,120.78206 c 3.9929,6.9107 56.085,33.44301 48.18,34.54901 z" />
</svg>
